<mxfile host="app.diagrams.net" modified="2023-09-29T22:20:25.461Z" agent="Mozilla/5.0 (Windows NT 10.0; Win64; x64) AppleWebKit/537.36 (KHTML, like Gecko) Chrome/117.0.0.0 Safari/537.36" etag="DJT9OZT4sJIO8njRVNCE" version="22.0.0" type="device">
  <diagram name="Página-1" id="1V_bNotR1bIltB5k0enz">
    <mxGraphModel dx="1345" dy="1195" grid="1" gridSize="10" guides="1" tooltips="1" connect="1" arrows="1" fold="1" page="1" pageScale="1" pageWidth="1169" pageHeight="827" background="#CCFFFF" math="0" shadow="0">
      <root>
        <mxCell id="0" />
        <mxCell id="1" parent="0" />
        <mxCell id="IdO6krmOJB8K-alvU5rv-2" value="" style="rounded=0;whiteSpace=wrap;html=1;" vertex="1" parent="1">
          <mxGeometry x="20" y="160" width="310" height="910" as="geometry" />
        </mxCell>
        <mxCell id="IdO6krmOJB8K-alvU5rv-3" value="Wireframes" style="text;html=1;strokeColor=none;fillColor=none;align=center;verticalAlign=middle;whiteSpace=wrap;rounded=0;fontSize=36;" vertex="1" parent="1">
          <mxGeometry x="520" y="40" width="140" height="30" as="geometry" />
        </mxCell>
        <mxCell id="IdO6krmOJB8K-alvU5rv-4" value="Mobile First" style="text;html=1;strokeColor=none;fillColor=none;align=center;verticalAlign=middle;whiteSpace=wrap;rounded=0;fontSize=26;" vertex="1" parent="1">
          <mxGeometry x="90" y="120" width="160" height="30" as="geometry" />
        </mxCell>
        <mxCell id="IdO6krmOJB8K-alvU5rv-5" value="" style="rounded=0;whiteSpace=wrap;html=1;" vertex="1" parent="1">
          <mxGeometry x="20" y="160" width="310" height="150" as="geometry" />
        </mxCell>
        <mxCell id="IdO6krmOJB8K-alvU5rv-6" value="" style="ellipse;whiteSpace=wrap;html=1;aspect=fixed;" vertex="1" parent="1">
          <mxGeometry x="120" y="170" width="90" height="90" as="geometry" />
        </mxCell>
        <mxCell id="IdO6krmOJB8K-alvU5rv-7" value="Nome" style="text;html=1;strokeColor=none;fillColor=none;align=center;verticalAlign=middle;whiteSpace=wrap;rounded=0;fontSize=29;" vertex="1" parent="1">
          <mxGeometry x="135" y="270" width="60" height="30" as="geometry" />
        </mxCell>
        <mxCell id="IdO6krmOJB8K-alvU5rv-8" value="&lt;h1&gt;Sobre&lt;/h1&gt;&lt;p&gt;Lorem ipsum dolor sit amet, consectetur adipisicing elit, sed do eiusmod tempor incididunt ut labore et dolore magna aliqua.&lt;/p&gt;" style="text;html=1;strokeColor=none;fillColor=none;spacing=5;spacingTop=-20;whiteSpace=wrap;overflow=hidden;rounded=0;" vertex="1" parent="1">
          <mxGeometry x="40" y="340" width="260" height="120" as="geometry" />
        </mxCell>
        <mxCell id="IdO6krmOJB8K-alvU5rv-9" value="" style="rounded=0;whiteSpace=wrap;html=1;" vertex="1" parent="1">
          <mxGeometry x="40" y="450" width="270" height="130" as="geometry" />
        </mxCell>
        <mxCell id="IdO6krmOJB8K-alvU5rv-10" value="&lt;h1&gt;Contato&lt;/h1&gt;&lt;p&gt;Lorem ipsum dolor sit amet, consectetur adipisicing elit, sed do eiusmod tempor incididunt ut labore et dolore magna aliqua.&lt;/p&gt;" style="text;html=1;strokeColor=none;fillColor=none;spacing=5;spacingTop=-20;whiteSpace=wrap;overflow=hidden;rounded=0;align=right;" vertex="1" parent="1">
          <mxGeometry x="45" y="610" width="260" height="120" as="geometry" />
        </mxCell>
        <mxCell id="IdO6krmOJB8K-alvU5rv-11" value="Form" style="rounded=0;whiteSpace=wrap;html=1;" vertex="1" parent="1">
          <mxGeometry x="40" y="730" width="270" height="130" as="geometry" />
        </mxCell>
        <mxCell id="IdO6krmOJB8K-alvU5rv-13" value="Rodapé" style="rounded=0;whiteSpace=wrap;html=1;" vertex="1" parent="1">
          <mxGeometry x="20" y="940" width="310" height="130" as="geometry" />
        </mxCell>
        <mxCell id="IdO6krmOJB8K-alvU5rv-15" value="" style="rounded=0;whiteSpace=wrap;html=1;" vertex="1" parent="1">
          <mxGeometry x="360" y="160" width="780" height="660" as="geometry" />
        </mxCell>
        <mxCell id="IdO6krmOJB8K-alvU5rv-16" value="Wide" style="text;html=1;strokeColor=none;fillColor=none;align=center;verticalAlign=middle;whiteSpace=wrap;rounded=0;fontSize=26;" vertex="1" parent="1">
          <mxGeometry x="670" y="120" width="160" height="30" as="geometry" />
        </mxCell>
        <mxCell id="IdO6krmOJB8K-alvU5rv-18" value="" style="rounded=0;whiteSpace=wrap;html=1;fillColor=#ffe6cc;strokeColor=#d79b00;" vertex="1" parent="1">
          <mxGeometry x="360" y="160" width="780" height="130" as="geometry" />
        </mxCell>
        <mxCell id="IdO6krmOJB8K-alvU5rv-19" value="" style="ellipse;whiteSpace=wrap;html=1;aspect=fixed;" vertex="1" parent="1">
          <mxGeometry x="600" y="180" width="90" height="90" as="geometry" />
        </mxCell>
        <mxCell id="IdO6krmOJB8K-alvU5rv-20" value="Nome" style="text;html=1;strokeColor=none;fillColor=none;align=center;verticalAlign=middle;whiteSpace=wrap;rounded=0;fontSize=29;" vertex="1" parent="1">
          <mxGeometry x="750" y="210" width="60" height="30" as="geometry" />
        </mxCell>
        <mxCell id="IdO6krmOJB8K-alvU5rv-21" value="" style="rounded=0;whiteSpace=wrap;html=1;fillColor=#fff2cc;strokeColor=#d6b656;" vertex="1" parent="1">
          <mxGeometry x="360" y="290" width="780" height="30" as="geometry" />
        </mxCell>
        <mxCell id="IdO6krmOJB8K-alvU5rv-22" value="HOME" style="rounded=0;whiteSpace=wrap;html=1;" vertex="1" parent="1">
          <mxGeometry x="520" y="290" width="100" height="30" as="geometry" />
        </mxCell>
        <mxCell id="IdO6krmOJB8K-alvU5rv-23" value="CONTATO" style="rounded=0;whiteSpace=wrap;html=1;" vertex="1" parent="1">
          <mxGeometry x="690" y="290" width="100" height="30" as="geometry" />
        </mxCell>
        <mxCell id="IdO6krmOJB8K-alvU5rv-24" value="SOBRE" style="rounded=0;whiteSpace=wrap;html=1;" vertex="1" parent="1">
          <mxGeometry x="860" y="290" width="100" height="30" as="geometry" />
        </mxCell>
        <mxCell id="IdO6krmOJB8K-alvU5rv-25" value="" style="rounded=0;whiteSpace=wrap;html=1;" vertex="1" parent="1">
          <mxGeometry x="430" y="370" width="270" height="130" as="geometry" />
        </mxCell>
        <mxCell id="IdO6krmOJB8K-alvU5rv-26" value="&lt;h1&gt;Sobre&lt;/h1&gt;&lt;p&gt;Lorem ipsum dolor sit amet, consectetur adipisicing elit, sed do eiusmod tempor incididunt ut labore et dolore magna aliqua.&lt;/p&gt;" style="text;html=1;strokeColor=none;fillColor=none;spacing=5;spacingTop=-20;whiteSpace=wrap;overflow=hidden;rounded=0;" vertex="1" parent="1">
          <mxGeometry x="790" y="370" width="260" height="120" as="geometry" />
        </mxCell>
        <mxCell id="IdO6krmOJB8K-alvU5rv-27" value="&lt;h1&gt;Contato&lt;/h1&gt;&lt;p&gt;Lorem ipsum dolor sit amet, consectetur adipisicing elit, sed do eiusmod tempor incididunt ut labore et dolore magna aliqua.&lt;/p&gt;" style="text;html=1;strokeColor=none;fillColor=none;spacing=5;spacingTop=-20;whiteSpace=wrap;overflow=hidden;rounded=0;align=right;" vertex="1" parent="1">
          <mxGeometry x="430" y="550" width="260" height="120" as="geometry" />
        </mxCell>
        <mxCell id="IdO6krmOJB8K-alvU5rv-28" value="" style="rounded=0;whiteSpace=wrap;html=1;" vertex="1" parent="1">
          <mxGeometry x="770" y="520" width="270" height="130" as="geometry" />
        </mxCell>
        <mxCell id="IdO6krmOJB8K-alvU5rv-29" value="Footer" style="rounded=0;whiteSpace=wrap;html=1;fillColor=#f8cecc;strokeColor=#b85450;" vertex="1" parent="1">
          <mxGeometry x="360" y="780" width="780" height="40" as="geometry" />
        </mxCell>
      </root>
    </mxGraphModel>
  </diagram>
</mxfile>
